<?xml version="1.0" standalone="no"?>
<!DOCTYPE svg PUBLIC "-//W3C//DTD SVG 20010904//EN"
 "http://www.w3.org/TR/2001/REC-SVG-20010904/DTD/svg10.dtd">
<svg version="1.0" xmlns="http://www.w3.org/2000/svg"
 width="396.000000pt" height="396.000000pt" viewBox="0 0 396.000000 396.000000"
 preserveAspectRatio="xMidYMid meet">
<metadata>
Created by potrace 1.11, written by Peter Selinger 2001-2013
</metadata>
<g transform="translate(0.000000,396.000000) scale(0.100000,-0.100000)"
fill="#000000" stroke="none">
<path d="M1829 3946 c-2 -2 -33 -6 -69 -10 -655 -63 -1273 -503 -1561 -1111
-75 -159 -145 -379 -164 -515 -3 -25 -8 -56 -10 -70 -16 -104 -23 -363 -12
-435 3 -16 8 -57 12 -90 4 -32 9 -68 11 -80 2 -11 7 -33 9 -50 3 -16 17 -70
30 -120 87 -323 245 -604 475 -847 56 -59 80 -79 84 -68 3 8 51 182 106 385
257 942 312 1141 322 1158 20 38 47 36 198 -16 80 -27 155 -59 167 -70 30 -27
35 0 -82 -427 -14 -52 -28 -102 -30 -111 -3 -16 -122 -456 -175 -649 -63 -230
-139 -516 -142 -534 -2 -14 9 -26 37 -43 22 -12 43 -23 47 -23 4 0 11 24 17
53 13 62 20 91 25 115 2 9 11 49 19 87 9 39 54 250 102 470 48 220 93 429 100
465 8 36 29 137 49 226 19 88 37 172 40 187 2 15 7 35 10 45 3 9 7 28 10 42 2
14 22 111 45 215 23 105 49 223 57 263 16 74 41 112 73 112 44 0 317 -80 328
-96 19 -26 16 -62 -13 -193 -38 -168 -37 -153 -9 -135 23 15 66 14 149 -2 12
-2 41 -6 66 -9 106 -12 134 -19 151 -36 19 -19 19 -18 20 24 1 23 3 53 4 67 1
14 3 37 4 52 2 53 23 61 141 54 184 -11 234 -18 253 -35 20 -17 20 3 2 -351
-1 -30 -6 -120 -10 -199 -3 -79 -8 -171 -10 -205 -4 -59 -12 -212 -20 -386 -5
-102 -14 -265 -20 -375 -11 -185 -15 -267 -20 -394 -3 -74 -8 -137 -10 -141
-2 -3 -1 -11 3 -17 5 -7 25 -2 62 16 l55 26 0 1305 c1 718 4 1315 8 1327 11
31 29 34 200 35 167 1 192 -5 201 -49 3 -16 4 -558 3 -1206 -1 -647 -1 -1177
1 -1177 12 0 162 133 232 206 158 164 257 306 355 509 85 176 155 391 171 529
4 28 8 54 10 57 7 11 17 195 17 294 0 96 -9 233 -18 265 -2 8 -6 33 -10 55 -3
22 -13 69 -21 105 -9 36 -17 72 -19 80 -18 82 -81 242 -147 375 -103 209 -326
488 -493 617 -16 12 -39 31 -50 41 -66 60 -304 201 -428 254 -61 25 -218 82
-247 88 -8 2 -40 10 -70 18 -30 8 -86 19 -125 26 -38 6 -83 14 -100 17 -34 7
-390 15 -396 10z"/>
<path d="M1876 1898 c-9 -46 -19 -93 -21 -105 -3 -13 -7 -31 -9 -40 -13 -54
-26 -112 -30 -138 -3 -16 -8 -39 -10 -50 -3 -11 -14 -65 -26 -120 -12 -55 -23
-107 -25 -115 -7 -32 -55 -250 -59 -272 -7 -39 -76 -360 -86 -403 -29 -122
-120 -559 -120 -575 0 -18 34 -30 140 -46 19 -3 38 -8 42 -10 11 -7 18 12 23
58 4 44 42 390 50 466 13 116 15 132 51 467 3 28 7 66 9 85 7 53 14 119 20
185 6 58 11 103 20 175 2 19 7 60 9 90 8 77 14 135 31 289 8 74 13 136 11 138
-1 2 -10 -34 -20 -79z"/>
<path d="M2301 1794 c0 -11 3 -14 6 -6 3 7 2 16 -1 19 -3 4 -6 -2 -5 -13z"/>
<path d="M2296 1753 c-3 -10 -7 -50 -10 -90 -4 -40 -8 -87 -11 -105 -4 -29 -9
-81 -29 -268 -6 -55 -15 -133 -21 -180 -2 -19 -6 -57 -9 -85 -8 -76 -26 -246
-31 -285 -10 -84 -16 -138 -20 -186 -2 -27 -9 -89 -15 -135 -5 -47 -12 -112
-15 -145 -3 -32 -7 -70 -10 -84 -2 -14 -7 -56 -11 -95 -3 -38 -8 -73 -11 -77
-5 -10 89 -10 102 0 6 4 10 23 11 42 1 46 15 319 19 390 2 30 6 107 10 170 7
137 13 252 20 375 3 50 7 135 10 190 3 55 7 138 10 185 2 47 7 135 11 195 3
61 7 131 9 158 2 49 0 59 -9 30z"/>
</g>
</svg>
