<?xml version="1.0" encoding="iso-8859-1"?>
<svg version="1.1" id="Layer_1" xmlns="http://www.w3.org/2000/svg" x="0px" y="0px"
	 viewBox="0 0 512 512" style="enable-background:new 0 0 512 512;" xml:space="preserve">
    <path d="M371.523,199.016h-12.114v-26.869c0-2.06-0.616-3.974-1.666-5.577c-0.005-0.009-0.005-0.016-0.01-0.025L266.199,27.3
        V10.199C266.199,4.567,261.632,0,255.999,0C250.367,0,245.8,4.567,245.8,10.199V27.3l-91.534,139.245
        c-0.006,0.009-0.005,0.016-0.01,0.026c-1.051,1.603-1.666,3.518-1.666,5.577v26.869h-12.114c-5.632,0-10.199,4.567-10.199,10.199
        v231.046c0,5.632,4.567,10.199,10.199,10.199h12.834v51.341c0,5.632,4.567,10.199,10.199,10.199h185.7
        c5.632,0,10.199-4.567,10.199-10.199V450.46h12.114c5.632,0,10.199-4.567,10.199-10.199V209.215
        C381.722,203.582,377.155,199.016,371.523,199.016z M255.999,48.92l74.3,113.028h-148.6L255.999,48.92z M172.988,182.346h166.023
        v16.67H172.988V182.346z M199.016,491.602h-25.307V450.46h25.307V491.602z M246.16,491.602h-26.746V450.46h26.746V491.602z
         M339.012,491.602h-0.001h-72.452V450.46h26.747v25.43c0,5.632,4.567,10.199,10.199,10.199c5.632,0,10.199-4.567,10.199-10.199
        v-25.43h25.307V491.602z M361.324,430.062H150.675V219.414h12.114H349.21h12.114V430.062z"/>
    <path d="M256.36,226.608c-54.11,0-98.131,44.021-98.131,98.131c0,54.11,44.021,98.131,98.131,98.131s98.131-44.021,98.131-98.131
        C354.49,270.629,310.468,226.608,256.36,226.608z M256.36,402.47c-42.861,0-77.732-34.87-77.732-77.732
        c0-42.862,34.87-77.732,77.732-77.732c42.862,0,77.732,34.87,77.732,77.732C334.092,367.6,299.221,402.47,256.36,402.47z"/>
    <path d="M237.164,269.786l-2.21-3.829c-2.815-4.878-9.053-6.553-13.931-3.734c-4.878,2.816-6.551,9.054-3.734,13.931l2.21,3.829
        c1.889,3.273,5.317,5.103,8.843,5.103c1.729,0,3.483-0.442,5.088-1.369C238.308,280.901,239.981,274.663,237.164,269.786z"/>
    <path d="M212.165,286.394l-3.828-2.21c-4.88-2.818-11.115-1.144-13.932,3.733s-1.146,11.115,3.733,13.932l3.828,2.21
        c1.606,0.927,3.36,1.369,5.089,1.369c3.525,0,6.953-1.83,8.843-5.102C218.715,295.448,217.044,289.211,212.165,286.394z"/>
    <path d="M198.82,313.276h-4.42c-5.632,0-10.199,4.567-10.199,10.199c0,5.632,4.567,10.199,10.199,10.199h4.42
        c5.632,0,10.199-4.567,10.199-10.199C209.019,317.843,204.452,313.276,198.82,313.276z"/>
    <path d="M214.634,346.961c-2.817-4.876-9.055-6.549-13.933-3.73l-3.828,2.211c-4.877,2.818-6.548,9.056-3.73,13.933
        c1.89,3.271,5.317,5.1,8.842,5.1c1.731,0,3.485-0.442,5.091-1.37l3.828-2.211C215.781,358.076,217.452,351.838,214.634,346.961z"
        />
    <path d="M231.243,364.495c-4.878-2.818-11.116-1.145-13.931,3.734l-2.21,3.829c-2.817,4.877-1.144,11.115,3.734,13.931
        c1.605,0.927,3.359,1.369,5.088,1.369c3.526,0,6.954-1.83,8.843-5.103l2.21-3.829
        C237.793,373.549,236.121,367.311,231.243,364.495z"/>
    <path d="M254.393,371.375c-5.632,0-10.199,4.567-10.199,10.199v4.42c0,5.632,4.567,10.199,10.199,10.199
        c5.632,0,10.199-4.567,10.199-10.199v-4.42C264.592,375.943,260.025,371.375,254.393,371.375z"/>
    <path d="M294.023,373.32l-2.21-3.829c-2.815-4.878-9.052-6.553-13.931-3.734c-4.878,2.816-6.551,9.054-3.734,13.931l2.21,3.829
        c1.889,3.273,5.317,5.103,8.843,5.103c1.729,0,3.483-0.442,5.088-1.369C295.168,384.435,296.84,378.198,294.023,373.32z"/>
    <path d="M313.174,347.628l-3.828-2.21c-4.88-2.816-11.115-1.145-13.932,3.733c-2.817,4.877-1.145,11.115,3.733,13.932l3.828,2.21
        c1.606,0.927,3.36,1.369,5.089,1.369c3.525,0,6.953-1.83,8.843-5.102C319.723,356.682,318.052,350.445,313.174,347.628z"/>
    <path d="M316.913,315.802h-4.42c-5.632,0-10.199,4.567-10.199,10.199s4.567,10.199,10.199,10.199h4.42
        c5.632,0,10.199-4.567,10.199-10.199S322.545,315.802,316.913,315.802z"/>
    <path d="M318.17,290.103c-2.818-4.878-9.056-6.55-13.932-3.733l-3.828,2.21c-4.878,2.817-6.55,9.055-3.733,13.932
        c1.89,3.272,5.318,5.102,8.843,5.102c1.73,0,3.484-0.442,5.089-1.369l3.828-2.21C319.315,301.218,320.987,294.98,318.17,290.103z"
        />
    <path d="M292.478,263.487c-4.879-2.818-11.115-1.144-13.932,3.733l-2.21,3.828c-2.817,4.877-1.146,11.115,3.733,13.932
        c1.606,0.927,3.36,1.369,5.089,1.369c3.525,0,6.953-1.83,8.843-5.102l2.21-3.828C299.028,272.542,297.356,266.304,292.478,263.487
        z"/>
    <path d="M279.022,314.539h-11.904v-51.058c0-5.632-4.567-10.199-10.199-10.199c-5.632,0-10.199,4.567-10.199,10.199v61.257
        c0,5.632,4.567,10.199,10.199,10.199h22.104c5.632,0,10.199-4.567,10.199-10.199C289.221,319.107,284.654,314.539,279.022,314.539
        z"/>
    <path d="M261.642,73.098c-4.694-3.119-11.022-1.839-14.138,2.854l-2.709,4.08c-3.117,4.693-1.839,11.023,2.854,14.138
        c1.736,1.154,3.695,1.704,5.633,1.704c3.302,0,6.542-1.601,8.505-4.558l2.709-4.08C267.612,82.544,266.334,76.214,261.642,73.098z
        "/>
    <path d="M244.302,99.212c-4.691-3.115-11.023-1.838-14.138,2.856l-23.968,36.1c-3.116,4.693-1.838,11.023,2.856,14.138
        c1.735,1.153,3.694,1.703,5.632,1.703c3.301,0,6.543-1.601,8.506-4.559l23.968-36.1
        C250.274,108.658,248.996,102.328,244.302,99.212z"/>
</svg>
